<?xml version="1.0" encoding="UTF-8"?>
<svg id="Layer_1" xmlns="http://www.w3.org/2000/svg" version="1.1" xmlns:serif="http://www.serif.com/" xmlns:xlink="http://www.w3.org/1999/xlink" viewBox="0 0 687.8 736.8">
  <!-- Generator: Adobe Illustrator 29.0.0, SVG Export Plug-In . SVG Version: 2.1.0 Build 186)  -->
  <defs>
    <style>
      .st0 {
        fill: none;
      }

      .st1 {
        fill: #c46a2d;
      }

      .st1, .st2 {
        fill-rule: evenodd;
      }

      .st2 {
        fill: #bc672e;
      }

      .st3 {
        clip-path: url(#clippath);
      }
    </style>
    <clipPath id="clippath">
      <rect class="st0" width="687.8" height="736.8"/>
    </clipPath>
  </defs>
  <g class="st3">
    <g>
      <path class="st1" d="M591.5,113.5v5.5c0,6.8-4.4,12.9-11,14.9h0c-70.7,21.6-159-20.8-206.8-103.7-53-92-21.2-169.6,6.8-211.1,3.7-5.4,10.1-8,16.3-6.7,6.3,1.3,11.2,6.3,12.4,12.7,9.1,47.3,43.8,98,83.9,128.9,98.4,76.4,98.5,159.5,98.5,159.5h0ZM648.3-128.2c-47.8-82.7-135.7-125.2-206.3-103.9h-.1c-6.8,2.2-11.5,8.5-11.5,15.7v5s.1,83.1,98.5,159.5c39.7,30.7,74.2,80.7,83.6,127.6,1.3,6.5,6.5,11.6,13.1,12.9,6.5,1.3,13.2-1.4,16.9-7.1,27.8-41.8,58.4-118.8,5.9-209.8h-.1Z"/>
      <path class="st2" d="M279.7,36.3c7.5,2.4,12.4,9.3,12.4,17.1.1,3.4.1,6.2.1,6.2,0,0-.1,95.1-112.8,182.6-45.7,35.6-85.5,93.5-96,147.7-1.4,7.2-7,13-14.2,14.5-7.2,1.5-14.6-1.5-18.8-7.6-32.1-47.6-68.4-136.4-7.9-241.7C97.6,60.3,198.7,11.6,279.6,36.4h.1ZM121.1,455.2c-7.7-2.4-13.1-9.7-13.1-17.9v-5.7s0-95.1,112.8-182.6c45.5-35.3,84.8-92.4,95.6-146.2,1.5-7.5,7.4-13.3,14.9-14.9s15.1,1.7,19.3,8.1c31.9,47.9,66.8,136,6.7,240.1-54.6,94.7-155.3,143.2-236.1,118.9h0v.2h0Z"/>
      <path class="st1" d="M591.5,850.3v5.5c0,6.8-4.4,12.9-11,14.9h0c-70.7,21.6-159-20.8-206.8-103.7-53-92-21.2-169.6,6.8-211.1,3.7-5.4,10.1-8,16.3-6.7,6.3,1.3,11.2,6.3,12.4,12.7,9.1,47.3,43.8,98,83.9,128.9,98.4,76.4,98.5,159.5,98.5,159.5h0ZM648.3,608.6c-47.8-82.7-135.7-125.2-206.3-103.9h-.1c-6.8,2.2-11.5,8.5-11.5,15.7v5s.1,83.1,98.5,159.5c39.7,30.7,74.2,80.7,83.6,127.6,1.3,6.5,6.5,11.6,13.1,12.9,6.5,1.3,13.2-1.4,16.9-7.1,27.8-41.8,58.4-118.8,5.9-209.8h-.1Z"/>
      <path class="st1" d="M219.9,695.4c-53.2,30.7-98.1,12.3-122.1-3.9-3.1-2.1-4.6-5.8-3.9-9.5.8-3.6,3.6-6.5,7.3-7.2,27.4-5.3,56.6-25.4,74.6-48.5,44.2-56.9,92.3-57,92.3-57h3.2c3.9,0,7.4,2.6,8.7,6.3v.2c12.4,40.9-12.1,92-60.1,119.6h0ZM172.4,605.5c17.9-22.9,46.7-42.8,73.9-48.3,3.8-.7,6.7-3.7,7.5-7.5s-.9-7.7-4.1-9.8c-24.2-16.1-68.7-33.8-121.4-3.4-47.9,27.6-72.4,78.5-60.1,119.3h0c1.2,4,4.9,6.7,9,6.7h2.9s48.1,0,92.3-57h0Z"/>
      <path class="st1" d="M627.3,424.4c.8,3.6-.8,7.4-3.9,9.5-24,16.2-68.9,34.6-122.1,3.9-48-27.6-72.5-78.7-60-119.6v-.2c1.1-3.8,4.6-6.3,8.6-6.3h3.2s48.1,0,92.3,57c18,23.1,47.2,43.2,74.6,48.5,3.6.7,6.5,3.5,7.3,7.2h0ZM592.8,278.7c-52.7-30.4-97.2-12.7-121.4,3.4-3.2,2.2-4.9,6-4.1,9.8s3.7,6.7,7.5,7.5c27.2,5.4,56.1,25.4,73.9,48.3,44.2,57,92.3,57,92.3,57h2.9c4.1,0,7.8-2.7,9-6.6h0c12.3-40.9-12.3-91.8-60.1-119.4h0Z"/>
    </g>
  </g>
</svg>