<svg id="coffee-logo" xmlns="http://www.w3.org/2000/svg" version="1.1" fill="currentColor" viewBox="0 0 158.001 169.058">
  <path d="M88.895,74.992h-55.5c-4.52,0-8.995,7.52-7.494,12.007-51.438,5.799-16.449,64.127,20.293,60.194,5.662,5.113,17.448,13.774,25.695,16.8-20.047-30.994-7.41-66.586,17.006-89.001ZM26.855,104.031l6.036,22.956c-11.702-.77-22.469-22.081-6.036-22.956Z"/>
  <path d="M143.958,86.534c-15.152-50.879-92.29,26.076-71.031,60.927.47,3.014,4.264,4.607,5.169,1.084,4.135-29.485,63.805-33.86,65.863-62.011Z"/>
  <path d="M151.408,87.996c-6.741,26.499-34.771,38.69-56.813,50.196-18.373,10.95-11.664,32.19,8.782,30.801,33.482-1.582,69.797-52.497,48.031-80.997Z"/>
  <path d="M81.885,54.992c.113-21.748,28.078-31.328,11.997-54.992-10.758,14.964-31.295,38.092-11.997,54.992Z"/>
  <path d="M95.885,70.992c.359-17.033,24.283-27.691,8.505-45.995-6.623,16.316-27.483,28.303-8.505,45.995Z"/>
</svg>