<?xml version="1.0" encoding="UTF-8"?>
<svg id="Layer_1" xmlns="http://www.w3.org/2000/svg" version="1.1" viewBox="0 0 48 48">
  <!-- Generator: Adobe Illustrator 29.0.0, SVG Export Plug-In . SVG Version: 2.1.0 Build 186)  -->
  <defs>
    <style>
      .st0 {
        fill: #fff;
      }
    </style>
  </defs>
  <path class="st0" d="M24,4.3c6.4,0,7.2,0,9.7.1,2.3.1,3.6.5,4.5.8,1.1.4,1.9,1,2.8,1.8.8.8,1.4,1.6,1.8,2.8.3.8.7,2.1.8,4.5.1,2.5.1,3.3.1,9.7s0,7.2-.1,9.7c-.1,2.3-.5,3.6-.8,4.5-.4,1.1-1,1.9-1.8,2.8s-1.6,1.4-2.8,1.8c-.8.3-2.1.7-4.5.8-2.5.1-3.3.1-9.7.1s-7.2,0-9.7-.1c-2.3-.1-3.6-.5-4.5-.8-1.1-.4-1.9-1-2.8-1.8-.8-.8-1.4-1.6-1.8-2.8-.3-.8-.7-2.1-.8-4.5-.1-2.5-.1-3.3-.1-9.7s0-7.2.1-9.7c.1-2.3.5-3.6.8-4.5.4-1.1,1-1.9,1.8-2.8.8-.8,1.6-1.4,2.8-1.8.8-.3,2.1-.7,4.5-.8,2.5-.1,3.3-.1,9.7-.1ZM24,0c-6.5,0-7.3,0-9.9.1-2.6.1-4.3.5-5.8,1.1-1.6.6-2.9,1.4-4.3,2.8-1.3,1.3-2.2,2.7-2.8,4.2-.6,1.5-1,3.3-1.1,5.8-.1,2.6-.1,3.4-.1,9.9s0,7.3.1,9.9c.1,2.6.5,4.3,1.1,5.8.6,1.6,1.4,2.9,2.8,4.3,1.3,1.3,2.7,2.2,4.2,2.8,1.5.6,3.3,1,5.8,1.1,2.6.1,3.4.1,9.9.1s7.3,0,9.9-.1c2.5-.1,4.3-.5,5.8-1.1,1.6-.6,2.9-1.4,4.2-2.8,1.3-1.3,2.2-2.7,2.8-4.2.6-1.5,1-3.3,1.1-5.8.1-2.6.1-3.4.1-9.9s0-7.3-.1-9.9c-.1-2.6-.5-4.3-1.1-5.8-.6-1.6-1.4-2.9-2.7-4.3-1.3-1.3-2.7-2.2-4.2-2.8-1.5-.6-3.3-1-5.8-1.1-2.6-.1-3.4-.2-9.9-.2Z"/>
  <path class="st0" d="M24,11.7c-6.8,0-12.3,5.5-12.3,12.3s5.5,12.3,12.3,12.3,12.3-5.5,12.3-12.3-5.5-12.3-12.3-12.3ZM24,32c-4.4,0-8-3.6-8-8s3.6-8,8-8,8,3.6,8,8-3.6,8-8,8Z"/>
  <path class="st0" d="M39.7,11.2c0,1.6-1.3,2.9-2.9,2.9s-2.9-1.3-2.9-2.9,1.3-2.9,2.9-2.9,2.9,1.3,2.9,2.9Z"/>
</svg>